<?xml version="1.0" encoding="UTF-8"?>
<svg id="_レイヤー_2" data-name="レイヤー_2" xmlns="http://www.w3.org/2000/svg" viewBox="0 0 200 200">
  <defs>
    <style>
      .cls-1 {
        fill: #fff;
      }
    </style>
  </defs>
  <path class="cls-1" d="M192.93,95.03C174.62,61.41,133.34,23.82,112.51,6.08c-6.97-5.94-18.05-5.94-25.02,0C66.66,23.82,25.38,61.41,7.07,95.03c0,0-16.68,21.92,42.89,24.01,0,0,5.93,24.96,3.59,31.28-4.71,4.24-7.26,11.54-7.26,20.91,0,15.28,13.2,27.14,14.99,27.14,1.55,0,10.68-8.9,13.11-21.2,2.42,12.3,11.56,21.2,13.11,21.2s9.92-9.04,12.03-21.49h.96c2.1,12.45,10.47,21.49,12.03,21.49s10.68-8.9,13.11-21.2c2.42,12.3,11.56,21.2,13.11,21.2,1.79,0,14.99-11.86,14.99-27.14,0-9.38-2.55-16.67-7.26-20.91-2.35-6.32,3.59-31.28,3.59-31.28,59.57-2.09,42.89-24.01,42.89-24.01ZM106.06,153.27c0,1.15-.94,2.09-2.09,2.09h-11.52c-1.15,0-2.09-.94-2.09-2.09v-12.81c0-1.15.94-2.09,2.09-2.09h11.52c1.15,0,2.09.94,2.09,2.09v12.81ZM136.83,100.5c-.18,5.89-2.21,10.94-6.1,15.15-3.89,4.21-8.55,6.41-14,6.6h-5.38c-1.44.07-2.66.65-3.68,1.75-1.02,1.1-1.56,2.4-1.61,3.88v3.93c0,1.15-.94,2.09-2.09,2.09h-11.52c-1.15,0-2.09-.94-2.09-2.09v-4.71c.24-5.89,2.33-10.94,6.28-15.15,3.95-4.21,8.61-6.44,14-6.7h5.29c1.44-.06,2.65-.65,3.63-1.75.99-1.1,1.51-2.43,1.57-3.98v-11.46c-.06-1.49-.6-2.8-1.61-3.93-1.02-1.13-2.21-1.73-3.59-1.8h-29.96c-1.97.07-3.63.86-4.98,2.38-1.35,1.52-2.08,3.32-2.2,5.39v10.82c0,1.15-.94,2.09-2.09,2.09h-11.43c-1.15,0-2.09-.94-2.09-2.09v-11.7c.18-6.47,2.41-12.01,6.68-16.6,4.27-4.6,9.37-6.99,15.3-7.19h31.58c5.44.13,10.12,2.33,14.04,6.6,3.92,4.27,5.94,9.32,6.06,15.15v13.3Z"/>
</svg>